<svg xmlns="http://www.w3.org/2000/svg" viewBox="0 0 1440 900" preserveAspectRatio="xMidYMax slice">
  <rect width="1440" height="900" fill="#f5f5f5"/>
  <!-- Cielo sutil -->
  <rect width="1440" height="900" fill="url(#sky)"/>
  <defs>
    <linearGradient id="sky" x1="0" y1="0" x2="0" y2="1">
      <stop offset="0" stop-color="#f7f7f7"/>
      <stop offset="1" stop-color="#ededed"/>
    </linearGradient>
  </defs>
  <!-- Montañas lejanas -->
  <path d="M0 640 L180 520 L340 620 L520 470 L700 610 L880 500 L1080 640 L1260 540 L1440 620 L1440 900 L0 900 Z" fill="#e9e9e9"/>
  <!-- Terrazas / andenes -->
  <path d="M0 720 L260 640 L470 720 L680 650 L900 730 L1140 660 L1440 730 L1440 900 L0 900 Z" fill="#e2e2e2"/>
  <g fill="#dcdcdc">
    <rect x="740" y="700" width="70" height="14"/>
    <rect x="760" y="716" width="90" height="14"/>
    <rect x="780" y="732" width="110" height="14"/>
    <rect x="800" y="748" width="130" height="14"/>
  </g>
  <!-- Machu Picchu estilizado -->
  <g fill="#d5d5d5">
    <rect x="900" y="705" width="18" height="26"/>
    <rect x="924" y="712" width="18" height="19"/>
    <rect x="948" y="700" width="18" height="31"/>
    <rect x="972" y="710" width="18" height="21"/>
  </g>
  <!-- Colina frontal -->
  <path d="M0 800 L300 740 L560 810 L820 750 L1120 820 L1440 770 L1440 900 L0 900 Z" fill="#d8d8d8"/>
  <!-- Llama silueta -->
  <g fill="#cfcfcf" transform="translate(150,628)">
    <rect x="26" y="58" width="5" height="34"/>
    <rect x="38" y="58" width="5" height="34"/>
    <rect x="54" y="58" width="5" height="34"/>
    <rect x="66" y="58" width="5" height="34"/>
    <ellipse cx="48" cy="50" rx="30" ry="15"/>
    <path d="M18 44 C9 42 7 51 14 55 L21 50 Z"/>
    <path d="M70 48 C74 32 76 24 80 14 L89 16 C87 28 85 38 79 54 Z"/>
    <ellipse cx="87" cy="12" rx="8" ry="6"/>
    <path d="M82 6 L84 -3 L87 6 Z"/>
    <path d="M89 6 L91 -3 L93 6 Z"/>
  </g>
</svg>
