<svg xmlns="http://www.w3.org/2000/svg" viewBox="0 0 1440 900" preserveAspectRatio="xMidYMax slice">
  <rect width="1440" height="900" fill="#f5f5f5"/>
  <!-- Cielo sutil -->
  <rect width="1440" height="900" fill="url(#sky)"/>
  <defs>
    <linearGradient id="sky" x1="0" y1="0" x2="0" y2="1">
      <stop offset="0" stop-color="#f7f7f7"/>
      <stop offset="1" stop-color="#ededed"/>
    </linearGradient>
  </defs>
  <!-- Montañas lejanas -->
  <path d="M0 640 L180 520 L340 620 L520 470 L700 610 L880 500 L1080 640 L1260 540 L1440 620 L1440 900 L0 900 Z" fill="#e9e9e9"/>
  <!-- Terrazas / andenes -->
  <path d="M0 720 L260 640 L470 720 L680 650 L900 730 L1140 660 L1440 730 L1440 900 L0 900 Z" fill="#e2e2e2"/>
  <g fill="#dcdcdc">
    <rect x="740" y="700" width="70" height="14"/>
    <rect x="760" y="716" width="90" height="14"/>
    <rect x="780" y="732" width="110" height="14"/>
    <rect x="800" y="748" width="130" height="14"/>
  </g>
  <!-- Machu Picchu estilizado -->
  <g fill="#d5d5d5">
    <rect x="900" y="705" width="18" height="26"/>
    <rect x="924" y="712" width="18" height="19"/>
    <rect x="948" y="700" width="18" height="31"/>
    <rect x="972" y="710" width="18" height="21"/>
  </g>
  <!-- Colina frontal -->
  <path d="M0 800 L300 740 L560 810 L820 750 L1120 820 L1440 770 L1440 900 L0 900 Z" fill="#d8d8d8"/>
  <!-- Alpaca / llama estilizada (silueta más orgánica, menos genérica) -->
  <g fill="#cfcfcf" transform="translate(150,628)">
    <!-- patas -->
    <path d="M26 64 q-2 15 0 28 q3 2 6 0 q1 -13 0 -28 z"/>
    <path d="M38 66 q-2 14 -1 26 q3 2 6 0 q0 -12 0 -26 z"/>
    <path d="M56 66 q-1 13 0 26 q3 2 6 0 q0 -12 -1 -26 z"/>
    <path d="M68 64 q-1 15 1 28 q3 2 6 0 q1 -13 0 -28 z"/>
    <!-- cuerpo mullido -->
    <path d="M18 60 q-8 -26 24 -30 q30 -3 38 16 q6 12 -6 18 q-12 5 -28 4 q-20 -1 -28 -8 z"/>
    <!-- cola -->
    <path d="M14 50 q-10 -2 -6 10 q5 4 11 -2 z"/>
    <!-- cuello y cabeza -->
    <path d="M68 44 q3 -26 12 -42 q3 -6 9 -3 q6 3 3 10 q-8 20 -12 40 z"/>
    <ellipse cx="90" cy="4" rx="9" ry="7"/>
    <!-- hocico -->
    <path d="M97 6 q6 0 8 4 q-3 4 -9 1 z"/>
    <!-- orejas -->
    <path d="M83 -1 l1 -12 l6 9 z"/>
    <path d="M92 -2 l5 -11 l3 11 z"/>
  </g>
</svg>
